<svg width="175" height="200" viewBox="0 0 175 200" fill="none" xmlns="http://www.w3.org/2000/svg">
<path d="M93.6217 175.497H78.219V200H93.6217V175.497Z" fill="#AB4537"/>
<path d="M138.066 138.768C140.295 137.872 139.829 135.699 139.829 135.699C139.829 135.699 145.151 138.201 150.753 137.263C156.354 136.325 156.634 133.927 156.634 133.927C142.945 124.037 130.016 110.601 121.958 99.1808C124.373 97.7486 124.288 94.8517 124.288 94.8517C124.288 94.8517 126.889 98.189 131.27 98.6363C135.65 99.0837 138.525 96.4913 138.525 96.4913C130.097 91.2418 118.465 78.1984 111.916 68.3653C113.147 67.0485 111.877 65.0018 111.877 65.0018C111.877 65.0018 114.497 67.8765 117.902 67.8765C121.308 67.8765 122.487 65.6689 122.487 65.6689C114.558 59.6308 107.429 50.3947 102.623 42.8265C102.46 42.3071 102.182 41.9282 102.182 41.9282C102.182 41.9282 104.532 43.5282 106.682 43.3782C108.831 43.2282 109.772 41.9282 109.772 41.9282C109.772 41.9282 103.391 38.5283 98.7558 32.6785C95.5753 28.664 93.1225 24.9796 91.8963 23.0625C92.873 23.8547 94.7433 24.917 97.2152 24.2042C99.7315 23.4787 99.5632 21.3526 99.5632 21.3526C89.7963 16.1463 83.7337 8.71601 79.8126 0C79.8126 0 76.4508 7.70753 72.2162 12.9437C66.8503 19.5788 61.1669 23.132 61.1669 23.132C61.1669 23.132 62.5481 24.2484 64.4817 24.2042C66.4154 24.1601 67.7965 22.3325 67.7965 22.3325C67.7965 22.3325 65.7248 25.5516 68.2109 26.1923C68.6684 26.3102 69.1304 26.2908 69.5801 26.1818C67.9463 28.5734 65.8658 31.4202 63.5274 34.1603C60.1186 38.1545 52.5041 43.5907 52.5041 43.5907C52.5041 43.5907 53.6059 44.8895 57.3242 44.1225C61.1858 43.3259 63.0216 40.4783 63.0216 40.4783C63.0216 40.4783 61.8847 42.73 62.5583 43.8874C57.7306 52.4228 50.3255 62.1897 42.0473 68.5483C42.0473 68.5483 45.0762 70.8868 50.4465 69.783C52.9065 69.2774 54.7876 68.1403 56.1058 67.0561C51.4934 76.5873 42.5074 88.1348 32.4341 95.8233C32.4341 95.8233 32.9516 98.1806 37.8718 98.6363C41.5924 98.981 43.6592 97.0272 43.6592 97.0272C43.6592 97.0272 43.3855 99.7793 46.1233 99.9834C46.1338 99.9842 46.1443 99.9832 46.1548 99.9839C39.6821 111.016 27.4151 124.391 15.33 134.24C15.33 134.24 18.6911 136.742 26.3935 136.533C34.0959 136.325 37.6899 132.468 37.6899 132.468C37.6899 132.468 37.3749 133.182 37.3256 134.119C29.1778 148.292 16.9826 162.074 1.32556 175.52C1.32556 175.52 3.42624 177.814 10.4284 176.459C17.4306 175.103 18.9712 173.748 18.9712 173.748C18.9712 173.748 16.7304 178.126 20.3716 179.065C24.0127 180.003 29.7545 177.397 29.7545 177.397C29.7545 177.397 28.362 180.733 33.2596 181.358C38.1572 181.984 41.2381 179.273 41.2381 179.273C41.2381 179.273 43.6189 181.984 48.2404 182.088C52.8618 182.192 53.9822 180.316 53.9822 180.316C53.9822 180.316 53.422 184.798 60.8443 185.528C68.2667 186.258 70.6474 181.254 70.6474 181.254C70.6474 181.254 70.9275 183.756 73.8684 183.86C76.8094 183.964 77.9297 182.088 77.9297 182.088C77.9297 182.088 79.7503 185.361 84.2317 185.601C88.7131 185.841 90.6737 182.192 90.6737 182.192C90.6737 182.192 93.8947 186.258 100.057 186.362C106.219 186.466 110.14 181.15 110.14 181.15C110.14 181.15 112.521 183.964 116.862 183.756C121.203 183.547 123.444 180.211 123.444 180.211C123.444 180.211 127.925 184.798 135.348 184.694C142.77 184.59 144.451 178.553 144.451 178.553C144.451 178.553 145.291 181.671 149.492 181.462C153.694 181.254 153.694 177.71 153.694 177.71C153.694 177.71 156.214 180.524 159.295 180.837C162.376 181.15 163.497 177.918 163.497 177.918C163.497 177.918 164.477 180.211 168.398 180.211C172.319 180.211 174 177.605 174 177.605C158.237 164.445 146.656 150.599 138.066 138.768Z" fill="#4BB4AD"/>
<path d="M61.1669 23.1299C61.1669 23.1299 62.548 24.2464 64.4816 24.2022C66.4153 24.158 67.7964 22.3305 67.7964 22.3305C67.7964 22.3305 65.7247 25.5495 68.2108 26.1903C70.6969 26.8311 73.3211 23.4384 73.3211 23.4384C73.3211 23.4384 72.7686 27.1395 76.4977 27.5507C80.2269 27.962 81.0556 23.4384 81.0556 23.4384C81.0556 23.4384 82.1605 27.6535 87.2708 27.0367C92.3811 26.4198 91.1381 22.3305 91.1381 22.3305C91.1381 22.3305 93.4976 25.2742 97.2152 24.2022C99.7314 23.4767 99.5631 21.3506 99.5631 21.3506" stroke="#258A86" stroke-width="2" stroke-miterlimit="10" stroke-linecap="round" stroke-linejoin="round"/>
<path d="M52.504 43.589C52.504 43.589 53.6058 44.8878 57.3241 44.1208C61.1858 43.3242 63.0215 40.4766 63.0215 40.4766C63.0215 40.4766 61.1622 44.1404 63.5748 44.5256C67.681 45.1814 71.4849 40.4766 71.4849 40.4766C71.4849 40.4766 70.2758 45.0764 74.5075 45.3264C78.7392 45.5764 80.3662 42.2265 80.3662 42.2265C80.3662 42.2265 82.1649 46.9264 86.4637 46.6264C90.7626 46.3264 91.2999 43.0765 91.2999 43.0765C91.2999 43.0765 94.5986 46.2264 99.5655 45.6764C104.532 45.1264 102.181 41.9265 102.181 41.9265C102.181 41.9265 104.532 43.5265 106.682 43.3765C108.831 43.2265 109.772 41.9265 109.772 41.9265" stroke="#258A86" stroke-width="2" stroke-miterlimit="10" stroke-linecap="round" stroke-linejoin="round"/>
<path d="M42.0474 68.5457C42.0474 68.5457 45.0762 70.8842 50.4465 69.7804C55.8168 68.6766 58.4364 64.5625 58.4364 64.5625C58.4364 64.5625 56.3407 69.4694 59.6153 70.0764C62.8898 70.6835 65.2475 67.2718 65.2475 67.2718C65.2475 67.2718 63.9377 71.3689 68.1291 71.7788C72.3205 72.1887 73.8923 68.5457 73.8923 68.5457C73.8923 68.5457 73.7614 73.2925 78.7387 72.7908C83.716 72.289 82.7991 67.9742 82.7991 67.9742C82.7991 67.9742 83.585 72.1716 88.4314 71.7788C93.2777 71.3859 93.6706 67.8739 93.6706 67.8739C93.6706 67.8739 95.8973 72.1716 100.875 71.7788C105.852 71.3859 104.018 67.2718 104.018 67.2718C104.018 67.2718 106.376 70.1151 110.174 69.2454C113.973 68.3756 111.877 64.9992 111.877 64.9992C111.877 64.9992 114.497 67.8739 117.902 67.8739C121.308 67.8739 122.487 65.6663 122.487 65.6663" stroke="#258A86" stroke-width="2" stroke-miterlimit="10" stroke-linecap="round" stroke-linejoin="round"/>
<path d="M32.4342 95.8212C32.4342 95.8212 32.9516 98.1784 37.8718 98.6342C41.5925 98.9788 43.6593 97.0251 43.6593 97.0251C43.6593 97.0251 43.3855 99.7772 46.1233 99.9813C48.8611 100.185 51.7359 97.6767 51.7359 97.6767C51.7359 97.6767 50.5038 102.066 55.4319 102.229C60.36 102.393 61.7289 98.6342 61.7289 98.6342C61.7289 98.6342 62.8241 102.467 67.3415 102.229C71.8589 101.992 74.0491 98.6342 74.0491 98.6342C74.0491 98.6342 73.3647 103.371 79.251 103.584C85.1373 103.798 85.9587 97.6767 85.9587 97.6767C85.9587 97.6767 86.6431 100.928 91.1605 100.808C95.678 100.687 97.0469 97.0251 97.0469 97.0251C97.0469 97.0251 99.2956 101.691 105.153 101.59C111.01 101.49 112.242 96.493 112.242 96.493C112.242 96.493 114.843 100.441 119.634 99.9119C124.425 99.3826 124.288 94.8496 124.288 94.8496C124.288 94.8496 126.889 98.1869 131.27 98.6342C135.65 99.0815 138.525 96.4892 138.525 96.4892" stroke="#258A86" stroke-width="2" stroke-miterlimit="10" stroke-linecap="round" stroke-linejoin="round"/>
<path d="M15.3301 134.238C15.3301 134.238 18.6912 136.74 26.3936 136.531C34.096 136.323 37.69 132.466 37.69 132.466C37.69 132.466 35.4343 137.574 42.0474 138.408C48.6606 139.242 50.3411 134.134 50.3411 134.134C50.3411 134.134 47.5402 139.554 52.5818 140.493C57.6234 141.431 59.7241 138.512 59.7241 138.512C59.7241 138.512 59.584 141.431 62.8051 141.744C66.0261 142.056 67.4265 139.137 67.4265 139.137C67.4265 139.137 67.0064 141.269 69.8073 141.767C72.6081 142.265 73.0283 140.076 73.0283 140.076C73.0283 140.076 74.1486 144.35 79.8904 143.724C85.6323 143.099 85.4796 139.242 85.4796 139.242C85.4796 139.242 85.9123 144.266 91.094 143.787C96.2756 143.307 95.7154 139.242 95.7154 139.242C95.7154 139.242 98.0962 143.307 103.978 142.161C109.86 141.014 108.039 135.906 108.039 135.906C108.039 135.906 110.42 141.431 117.142 141.014C123.864 140.597 122.487 136.427 122.487 136.427C122.487 136.427 124.144 138.512 127.085 138.199C130.026 137.886 130.026 134.968 130.026 134.968C130.026 134.968 131.847 139.346 136.188 139.137C140.53 138.929 139.829 135.697 139.829 135.697C139.829 135.697 145.151 138.199 150.753 137.261C156.355 136.323 156.635 133.925 156.635 133.925" stroke="#258A86" stroke-width="2" stroke-miterlimit="10" stroke-linecap="round" stroke-linejoin="round"/>
<path d="M1.32556 175.518C1.32556 175.518 3.42624 177.812 10.4284 176.456C17.4307 175.101 18.9711 173.746 18.9711 173.746C18.9711 173.746 16.7304 178.124 20.3716 179.063C24.0127 180.001 29.7545 177.395 29.7545 177.395C29.7545 177.395 28.362 180.73 33.2596 181.356C38.1572 181.981 41.2382 179.271 41.2382 179.271C41.2382 179.271 43.6189 181.981 48.2404 182.086C52.8618 182.19 53.9822 180.313 53.9822 180.313C53.9822 180.313 53.422 184.796 60.8443 185.526C68.2667 186.255 70.6474 181.252 70.6474 181.252C70.6474 181.252 70.9275 183.754 73.8684 183.858C76.8094 183.962 77.9297 182.086 77.9297 182.086C77.9297 182.086 79.7503 185.358 84.2317 185.598C88.7131 185.838 90.6737 182.19 90.6737 182.19C90.6737 182.19 93.8948 186.255 100.057 186.36C106.219 186.464 110.14 181.147 110.14 181.147C110.14 181.147 112.521 183.962 116.862 183.754C121.203 183.545 123.444 180.209 123.444 180.209C123.444 180.209 127.925 184.796 135.348 184.692C142.77 184.587 144.451 178.55 144.451 178.55C144.451 178.55 145.291 181.669 149.492 181.46C153.694 181.252 153.694 177.707 153.694 177.707C153.694 177.707 156.214 180.522 159.295 180.835C162.376 181.147 163.497 177.916 163.497 177.916C163.497 177.916 164.477 180.209 168.398 180.209C172.319 180.209 174 177.603 174 177.603" stroke="#258A86" stroke-width="2" stroke-miterlimit="10" stroke-linecap="round" stroke-linejoin="round"/>
</svg>
